<svg width="34" height="34" viewBox="0 0 34 34" fill="none" xmlns="http://www.w3.org/2000/svg">
<g clip-path="url(#clip0_130_1258)">
<path d="M8.36602 25.6149C9.88177 26.4914 11.571 27.0256 13.3151 27.18C15.0592 27.3344 16.816 27.1053 18.4622 26.5087C20.1083 25.9121 21.604 24.9624 22.8442 23.7264C24.0844 22.4904 25.0391 20.998 25.6413 19.3539C26.2435 17.7097 26.4786 15.9537 26.3301 14.2091C26.1816 12.4645 25.6531 10.7735 24.7817 9.25475C23.9103 7.73604 22.7171 6.42642 21.2859 5.41779C19.8546 4.40916 18.22 3.72596 16.4967 3.41614C15.9809 3.32276 15.4495 3.36945 14.9579 3.55136C14.4663 3.73326 14.0325 4.04371 13.7018 4.45034C13.371 4.85697 13.1554 5.34488 13.0774 5.86321C12.9993 6.38155 13.0618 6.91132 13.2582 7.39729C15.715 13.3421 13.3951 17.3363 7.03525 18.1758C6.51613 18.2489 6.02611 18.4598 5.61629 18.7867C5.20647 19.1136 4.89186 19.5445 4.70526 20.0344C4.51867 20.5242 4.46692 21.0552 4.55542 21.5719C4.64392 22.0886 4.86943 22.5721 5.20842 22.972C6.10361 24.0255 7.17135 24.9192 8.36602 25.6149ZM18.866 7.42833C19.9997 8.0812 20.9774 8.97336 21.7311 10.0427C22.4847 11.112 22.9962 12.3328 23.2299 13.62C23.4636 14.9071 23.4138 16.2298 23.0841 17.4958C22.7544 18.7618 22.1526 19.9407 21.3208 20.9504C20.4889 21.96 19.4469 22.7762 18.2674 23.3421C17.0879 23.9079 15.7992 24.2098 14.4911 24.2268C13.183 24.2437 11.8869 23.9752 10.6931 23.4401C9.49936 22.905 8.43661 22.116 7.5789 21.1282C15.7501 19.9973 19.183 14.0072 16.0869 6.39192C17.0627 6.58686 18.0009 6.93675 18.866 7.42833Z" fill="black"/>
</g>
<defs>
<clipPath id="clip0_130_1258">
<rect width="24" height="24" fill="white" transform="matrix(-0.866025 -0.5 -0.5 0.866025 33.3564 12.3301)"/>
</clipPath>
</defs>
</svg>
