<svg width="25" height="25" viewBox="0 0 25 25" fill="none" xmlns="http://www.w3.org/2000/svg">
<path d="M12.5 6.25C9.05 6.25 6.25 9.05 6.25 12.5C6.25 15.95 9.05 18.75 12.5 18.75C15.95 18.75 18.75 15.95 18.75 12.5C18.75 9.05 15.95 6.25 12.5 6.25ZM12.5 16.25C10.4375 16.25 8.75 14.5625 8.75 12.5C8.75 10.4375 10.4375 8.75 12.5 8.75C14.5625 8.75 16.25 10.4375 16.25 12.5C16.25 14.5625 14.5625 16.25 12.5 16.25Z" fill="white"/>
<path d="M12.5 5C13.1875 5 13.75 4.4375 13.75 3.75V1.25C13.75 0.5625 13.1875 0 12.5 0C11.8125 0 11.25 0.5625 11.25 1.25V3.75C11.25 4.4375 11.8125 5 12.5 5Z" fill="white"/>
<path d="M18.6869 7.5627C19.0119 7.5627 19.3244 7.4377 19.5744 7.2002L21.3369 5.4377C21.8244 4.9502 21.8244 4.1627 21.3369 3.6752C20.8494 3.1877 20.0619 3.1877 19.5744 3.6752L17.8119 5.4377C17.3244 5.9252 17.3244 6.7127 17.8119 7.2002C18.0619 7.4502 18.3744 7.5627 18.6994 7.5627H18.6869Z" fill="white"/>
<path d="M23.75 11.25H21.25C20.5625 11.25 20 11.8125 20 12.5C20 13.1875 20.5625 13.75 21.25 13.75H23.75C24.4375 13.75 25 13.1875 25 12.5C25 11.8125 24.4375 11.25 23.75 11.25Z" fill="white"/>
<path d="M19.5744 17.8002C19.0869 17.3127 18.2994 17.3127 17.8119 17.8002C17.3244 18.2877 17.3244 19.0752 17.8119 19.5627L19.5744 21.3252C19.8244 21.5752 20.1369 21.6877 20.4619 21.6877C20.7869 21.6877 21.0994 21.5627 21.3494 21.3252C21.8369 20.8377 21.8369 20.0502 21.3494 19.5627L19.5869 17.8002H19.5744Z" fill="white"/>
<path d="M12.5 20C11.8125 20 11.25 20.5625 11.25 21.25V23.75C11.25 24.4375 11.8125 25 12.5 25C13.1875 25 13.75 24.4375 13.75 23.75V21.25C13.75 20.5625 13.1875 20 12.5 20Z" fill="white"/>
<path d="M5.42383 17.8002L3.64883 19.5627C3.16133 20.0502 3.16133 20.8377 3.64883 21.3252C3.89883 21.5752 4.21133 21.6877 4.53633 21.6877C4.86133 21.6877 5.17383 21.5627 5.42383 21.3252L7.19883 19.5627C7.68633 19.0752 7.68633 18.2877 7.19883 17.8002C6.71133 17.3127 5.92383 17.3127 5.43633 17.8002H5.42383Z" fill="white"/>
<path d="M5 12.5C5 11.8125 4.4375 11.25 3.75 11.25H1.25C0.5625 11.25 0 11.8125 0 12.5C0 13.1875 0.5625 13.75 1.25 13.75H3.75C4.4375 13.75 5 13.1875 5 12.5Z" fill="white"/>
<path d="M5.425 7.2002C5.675 7.4377 5.9875 7.5627 6.3125 7.5627C6.6375 7.5627 6.95 7.4377 7.2 7.2002C7.6875 6.7127 7.6875 5.9252 7.2 5.4377L5.425 3.6752C4.9375 3.1877 4.15 3.1877 3.6625 3.6752C3.175 4.1627 3.175 4.9502 3.6625 5.4377L5.4375 7.2002H5.425Z" fill="white"/>
</svg>
